<svg id="Layer_1" data-name="Layer 1" xmlns="http://www.w3.org/2000/svg" xmlns:xlink="http://www.w3.org/1999/xlink" viewBox="0 0 627.16 147.06"><defs><style>.cls-1,.cls-16{fill:none;}.cls-2{clip-path:url(#clip-path);}.cls-3{fill:#54ba5c;}.cls-4{fill:#ffc20e;}.cls-5{fill:#f47d20;}.cls-6{fill:#e11b22;}.cls-7{fill:#02205f;}.cls-8{fill:#fff;}.cls-9{fill:url(#linear-gradient);}.cls-10{fill:url(#linear-gradient-2);}.cls-11{fill:url(#linear-gradient-3);}.cls-12{fill:url(#linear-gradient-4);}.cls-13{fill:url(#linear-gradient-5);}.cls-14{fill:url(#linear-gradient-6);}.cls-15{fill:#939598;}.cls-16{stroke:#939598;stroke-miterlimit:10;}</style><clipPath id="clip-path" transform="translate(-47.48 -63.72)"><rect class="cls-1" x="399.81" y="123.79" width="164.88" height="50.61"/></clipPath><linearGradient id="linear-gradient" x1="624.52" y1="144.1" x2="624.52" y2="105.78" gradientUnits="userSpaceOnUse"><stop offset="0" stop-color="#008bb3"/><stop offset="0.02" stop-color="#259dc3"/><stop offset="0.05" stop-color="#5bb9da"/><stop offset="0.08" stop-color="#83cdeb"/><stop offset="0.11" stop-color="#9bd9f5"/><stop offset="0.12" stop-color="#a4def9"/><stop offset="0.13" stop-color="#9fddf9"/><stop offset="0.22" stop-color="#69d2f7"/><stop offset="0.3" stop-color="#41cbf5"/><stop offset="0.36" stop-color="#29c6f4"/><stop offset="0.4" stop-color="#20c4f4"/><stop offset="0.6" stop-color="#20c4f4"/><stop offset="0.64" stop-color="#29c6f4"/><stop offset="0.7" stop-color="#41cbf5"/><stop offset="0.78" stop-color="#69d2f7"/><stop offset="0.87" stop-color="#9fddf9"/><stop offset="0.88" stop-color="#a4def9"/><stop offset="0.89" stop-color="#9bd9f5"/><stop offset="0.92" stop-color="#83cdeb"/><stop offset="0.95" stop-color="#5bb9da"/><stop offset="0.98" stop-color="#259dc3"/><stop offset="1" stop-color="#008bb3"/></linearGradient><linearGradient id="linear-gradient-2" x1="633.74" y1="144.02" x2="633.74" y2="105.73" xlink:href="#linear-gradient"/><linearGradient id="linear-gradient-3" x1="616.41" y1="144.19" x2="616.41" y2="105.84" xlink:href="#linear-gradient"/><linearGradient id="linear-gradient-4" x1="640.26" y1="123.47" x2="651.44" y2="118.84" gradientUnits="userSpaceOnUse"><stop offset="0.2" stop-color="#20c4f4"/><stop offset="0.27" stop-color="#29c6f4"/><stop offset="0.38" stop-color="#41cbf5"/><stop offset="0.52" stop-color="#69d2f7"/><stop offset="0.68" stop-color="#9fddf9"/><stop offset="0.69" stop-color="#a4def9"/><stop offset="0.73" stop-color="#9bd9f5"/><stop offset="0.79" stop-color="#83cdeb"/><stop offset="0.86" stop-color="#5bb9da"/><stop offset="0.95" stop-color="#259dc3"/><stop offset="1" stop-color="#008bb3"/></linearGradient><linearGradient id="linear-gradient-5" x1="637.83" y1="133.2" x2="654.5" y2="126.3" gradientUnits="userSpaceOnUse"><stop offset="0.3" stop-color="#20c4f4"/><stop offset="0.36" stop-color="#29c6f4"/><stop offset="0.47" stop-color="#41cbf5"/><stop offset="0.6" stop-color="#69d2f7"/><stop offset="0.75" stop-color="#9fddf9"/><stop offset="0.76" stop-color="#a4def9"/><stop offset="0.79" stop-color="#9bd9f5"/><stop offset="0.83" stop-color="#83cdeb"/><stop offset="0.89" stop-color="#5bb9da"/><stop offset="0.96" stop-color="#259dc3"/><stop offset="1" stop-color="#008bb3"/></linearGradient><linearGradient id="linear-gradient-6" x1="635.36" y1="142.98" x2="657.49" y2="133.81" gradientUnits="userSpaceOnUse"><stop offset="0" stop-color="#60ccf6"/><stop offset="0.03" stop-color="#56cbf6"/><stop offset="0.11" stop-color="#3ec8f5"/><stop offset="0.19" stop-color="#2dc6f4"/><stop offset="0.28" stop-color="#23c4f4"/><stop offset="0.4" stop-color="#20c4f4"/><stop offset="0.46" stop-color="#29c6f4"/><stop offset="0.55" stop-color="#41cbf5"/><stop offset="0.66" stop-color="#69d2f7"/><stop offset="0.8" stop-color="#9fddf9"/><stop offset="0.81" stop-color="#a4def9"/><stop offset="0.83" stop-color="#9bd9f5"/><stop offset="0.87" stop-color="#83cdeb"/><stop offset="0.91" stop-color="#5bb9da"/><stop offset="0.97" stop-color="#259dc3"/><stop offset="1" stop-color="#008bb3"/></linearGradient></defs><title>logo</title><g class="cls-2"><path d="M520.59,138.1c-0.57.18,0.15,0.36,0.29,0.42a2,2,0,0,1,1.21,1.28,43.2,43.2,0,0,1,.14,5.93,2.17,2.17,0,0,1-1.89,1.79v0.3c2,0,5,0,6.62,0v-0.32a2.16,2.16,0,0,1-2.13-1.49,40.3,40.3,0,0,1-.1-5,2.9,2.9,0,0,1,.17-1,1.59,1.59,0,0,1,1.18-1.31c1.23-.12,1,1.35,2.46,1,2.2-.6-0.09-5.86-3.81-1,0-.46,0-1.89,0-2.16a24.83,24.83,0,0,1-4.14,1.62m4.14-1.62a24.83,24.83,0,0,1-4.14,1.62c-0.57.18,0.15,0.36,0.29,0.42a2,2,0,0,1,1.21,1.28,43.2,43.2,0,0,1,.14,5.93,2.17,2.17,0,0,1-1.89,1.79v0.3c2,0,5,0,6.62,0v-0.32a2.16,2.16,0,0,1-2.13-1.49,40.3,40.3,0,0,1-.1-5,2.9,2.9,0,0,1,.17-1,1.59,1.59,0,0,1,1.18-1.31c1.23-.12,1,1.35,2.46,1,2.2-.6-0.09-5.86-3.81-1,0-.46,0-1.89,0-2.16m-26,0a43,43,0,0,1-4.18,1.51c0,0.1,0,.34,0,0.34a2.23,2.23,0,0,1,1.64,1.57s0,3.16,0,5.22a2.21,2.21,0,0,1-1.71,2.37,2.63,2.63,0,0,0,0,.32c0.84,0,4.91,0,6,0v-0.32a2.1,2.1,0,0,1-1.72-2.37c0-3.49,0-4.52,0-4.52v-0.67c2-2.49,4.24-2.27,4.24-.23v5.58c0,2.11-1.53,2.21-1.53,2.21a1.3,1.3,0,0,1,0,.32h6c0-.16,0-0.32,0-0.32a2.28,2.28,0,0,1-2-2.37c0-.63,0-4.76,0-5.9-0.08-3.33-3.81-2.35-4.36-2.15a10.9,10.9,0,0,0-2.39,1.31v-1.92h0Zm39.83,2.34c0.07,0.82,0,4.36,0,5.3a3.58,3.58,0,0,1-2.34,2.53c-4.47.73-5.75-8.63-.34-9.38,1.08-.15,2.54.5,2.63,1.55m2.38-9.64a19.33,19.33,0,0,1-3.76,1.53c-0.18,0-.57.09-0.48,0.4,2,0.9,1.87,1.73,1.87,1.73v3.51c0.09,0.93-.09.4-0.89,0.29-10-1.43-9.68,11.6-3,11.29,3.13-.14,3.94-2.84,3.94-1.62,0,0,0,.85,0,1.62a25.71,25.71,0,0,1,3.81-.89l0-.2c-1.6-.89-1.37-1.36-1.49-2.74,0,0,0-13.75,0-14.93m-25.61,15.76c0,1-3.24,2.24-4,.75a1.45,1.45,0,0,1,.05-1.5c0.58-1.12,3.54-2.33,3.91-2.48,0,0,0,2.2,0,3.23M519,147c-1.1.21-1.05-.48-1.05-0.48s0-7.26,0-7.26c0-1.91-.61-2.86-2.75-2.74a9.46,9.46,0,0,0-3.63,1c-2.09.92-3.33,2.93-2,3.79,0.85,0.57,2.43-.19,2.4-2a2.57,2.57,0,0,1,2-1.65c0.38-.08,1.49-0.23,1.49.69a11.69,11.69,0,0,1-.09,2.39c-0.19.47-2.56,1-4.1,1.87-1.34.76-2.21,1.6-2.34,2.92-0.35,3.69,4.86,2.46,6.41.65,0.31-.36.39,0,0.41,0s0.09,2.35,2.69,1.6a5.68,5.68,0,0,0,.76-0.31S519,147.18,519,147m-39.7-2.08c0,1-3.24,2.23-4,.75a1.46,1.46,0,0,1,.05-1.5c0.58-1.12,3.54-2.33,3.91-2.48,0,0,0,2.2,0,3.23m3.65,2.08c-1.1.21-1.05-.48-1.05-0.48s0-7.26,0-7.26c0-1.91-.61-2.86-2.75-2.74a9.43,9.43,0,0,0-3.63,1c-2.09.92-3.33,2.93-2,3.8,0.85,0.57,2.43-.19,2.4-2a2.56,2.56,0,0,1,2-1.65c0.38-.08,1.5-0.23,1.5.69a11.82,11.82,0,0,1-.09,2.4c-0.19.47-2.56,1-4.1,1.86-1.34.76-2.21,1.6-2.34,2.92-0.35,3.69,4.86,2.46,6.41.65,0.31-.36.39,0,0.41,0s0.09,2.35,2.69,1.6a6.25,6.25,0,0,0,.76-0.31s-0.06-.21-0.12-0.38m-18.85-16.07a3.67,3.67,0,0,1,1,7.1c-0.66.28-3.45,0.48-3.45,0.22,0,0,0-7.4,0-7.4a10.62,10.62,0,0,1,2.47.09m-2.48,8.16a13,13,0,0,1,3.82.1c4.36,1,3.77,7-.27,7.81a5.63,5.63,0,0,1-3.54-.32c0-.82,0-7.58,0-7.58m5.66-.73c0.37-.46,3.39-1.49,2.61-4.85-1.07-4.58-7.6-3.27-13.25-3.52a2.33,2.33,0,0,0,0,.57c1,0,1.87.38,1.87,1.41v13.68c0,1.22-.9,1.47-1.92,1.56v0.58c0.92,0,2.34-.2,3.83-0.08,4.74,0.38,11.63,0,10.67-5.73a5,5,0,0,0-3.83-3.62m21.49-1.94a24.45,24.45,0,0,1-4.15,1.63c-0.57.18,0.16,0.36,0.29,0.42a2,2,0,0,1,1.22,1.29,43.17,43.17,0,0,1,.14,5.95,2.18,2.18,0,0,1-1.9,1.8v0.3c2,0,5,0,6.65,0v-0.32a2.17,2.17,0,0,1-2.14-1.49,40.11,40.11,0,0,1-.1-5,2.82,2.82,0,0,1,.17-1,1.59,1.59,0,0,1,1.18-1.31c1.24-.12,1,1.36,2.47,1,2.21-.61-0.09-5.89-3.82-1.05,0-.46,0-1.9,0-2.17m60.73,10.69c-4.88.85-5.59-9.89-.36-9.89,4.41,0,4.86,9.11.36,9.89m-0.87-10.62c-8.83.84-6.8,12.62,1.51,11.28,7.87-1.27,5.93-12-1.51-11.28m8.06,10.79c0-.36,0-2.24-0.07-4.18h0.29s1.58,4.91,4.69,4a1.66,1.66,0,0,0,1.14-1.06c1-3.22-5.2-2.64-6-5.61-0.91-3.5,3.63-5.22,6.59-3.4,0.17,0.33.57,3,.58,3a1.16,1.16,0,0,1-.43,0,5.6,5.6,0,0,0-2.23-2.76c-0.32-.16-2.3-0.58-2.73,1.07-0.82,3.14,7.67,2,5.91,7.16a3.41,3.41,0,0,1-2,2.11,7.5,7.5,0,0,1-4.11.16,12.36,12.36,0,0,1-1.68-.54" transform="translate(-47.48 -63.72)"/><path class="cls-3" d="M470.56,166.3l-0.15-.33-5.16-11.41c-1.48-3.26-1.46-4.08-1.78-4.08s-0.2.35-.72,1.43c-0.69,1.46-1.11,1.41-1.11,1.78a6.21,6.21,0,0,0,.59.94c0,0.2-.42,1.11-3.39,8.53a11,11,0,0,1-1.9,3.31l-0.1.11a2.25,2.25,0,0,1-1.48.92v0.28h5.77v-0.31a2,2,0,0,1-1.77-1l-0.16-.37A2.78,2.78,0,0,1,459,165a12.31,12.31,0,0,1,1-3.34h5.49l1.41,3.22a5.38,5.38,0,0,1,.42,1.34,0.88,0.88,0,0,1-.16.56,1.9,1.9,0,0,1-1.36.68v0.3h6.47v-0.33a1.82,1.82,0,0,1-1.72-1.16m-10.31-5.19,2.32-6.08,2.67,6.08h-5Z" transform="translate(-47.48 -63.72)"/><path class="cls-3" d="M480.05,166a6.23,6.23,0,0,1-4.51,2.07c-1.33,0-2.66-.64-2.66-2.37v-5.74c0-1.9-2-1.36-2-2,0-.39,1.68,0,4.68-1.43v8.92A1.37,1.37,0,0,0,477,166.9a3.93,3.93,0,0,0,3-1.55v-5.42c0-1.9-2-1.36-2-2,0-.39,1.68,0,4.68-1.43v8.3c0,1.95,1.82,1.45,1.82,1.9s-1.53.15-4.51,1.38V166Z" transform="translate(-47.48 -63.72)"/><path class="cls-3" d="M496.09,157.85h-1.84a29.68,29.68,0,0,0,4.57-5v3.72h3.4l-0.59,1.29h-2.8v6.4c0,1.81.55,2.63,1.76,2.63a2.1,2.1,0,0,0,1.64-.84,1.47,1.47,0,0,1,.47-0.59,0.16,0.16,0,0,1,.15.17,3.31,3.31,0,0,1-3.42,2.41c-2.18,0-3.32-1.22-3.32-3v-7.17Z" transform="translate(-47.48 -63.72)"/><path class="cls-3" d="M527.84,149.9a24.28,24.28,0,0,1-4.13,1.62c-0.57.18,0.16,0.36,0.29,0.41a2,2,0,0,1,1.21,1.28c0.22,0.8.12,9.47,0.14,12.51a2.17,2.17,0,0,1-1.89,1.79v0.3c2,0,5,0,6.61,0v-0.32a2.16,2.16,0,0,1-2.13-1.48c-0.17-.68-0.14-15.82-0.1-16.1" transform="translate(-47.48 -63.72)"/><path class="cls-3" d="M534.87,156.44a24.31,24.31,0,0,1-4.14,1.62c-0.57.18,0.16,0.36,0.29,0.42a2,2,0,0,1,1.21,1.28,42.93,42.93,0,0,1,.14,5.93,2.18,2.18,0,0,1-1.89,1.79v0.3c2,0,5,0,6.63,0v-0.32A2.17,2.17,0,0,1,535,166c-0.17-.68-0.14-9.26-0.1-9.53" transform="translate(-47.48 -63.72)"/><path class="cls-3" d="M533.56,151.1a1.69,1.69,0,1,1-1.69,1.69,1.68,1.68,0,0,1,1.69-1.69" transform="translate(-47.48 -63.72)"/><path class="cls-3" d="M485.74,167.27c0-.36,0-2.24-0.08-4.19H486s1.58,4.92,4.69,4a1.66,1.66,0,0,0,1.14-1.06c1-3.22-5.2-2.64-6-5.62-0.91-3.5,3.63-5.23,6.59-3.4,0.17,0.33.57,3,.58,3a1.17,1.17,0,0,1-.43,0,5.59,5.59,0,0,0-2.23-2.76c-0.32-.15-2.3-0.58-2.73,1.07-0.82,3.14,7.67,2,5.91,7.16a3.42,3.42,0,0,1-2,2.11,7.53,7.53,0,0,1-4.12.16,12.55,12.55,0,0,1-1.68-.54" transform="translate(-47.48 -63.72)"/><path class="cls-3" d="M506.93,156.44a24.8,24.8,0,0,1-4.14,1.62c-0.57.18,0.15,0.36,0.29,0.42a2,2,0,0,1,1.21,1.28,43.21,43.21,0,0,1,.14,5.93,2.17,2.17,0,0,1-1.89,1.79v0.3c2,0,5,0,6.63,0v-0.32A2.16,2.16,0,0,1,507,166a40.21,40.21,0,0,1-.1-5,2.9,2.9,0,0,1,.17-1,1.59,1.59,0,0,1,1.18-1.31c1.23-.12,1,1.35,2.46,1,2.2-.6-0.09-5.87-3.81-1,0-.46,0-1.89,0-2.17" transform="translate(-47.48 -63.72)"/><path class="cls-3" d="M522.56,167c-1.1.21-1.05-.48-1.05-0.48s0-7.25,0-7.25c0-1.91-.61-2.86-2.75-2.74a9.47,9.47,0,0,0-3.63,1c-2.08.92-3.32,2.93-2,3.79,0.85,0.57,2.43-.19,2.4-2a2.57,2.57,0,0,1,2-1.65c0.38-.08,1.49-0.23,1.49.69a11.79,11.79,0,0,1-.09,2.39c-0.19.47-2.56,1-4.1,1.87-1.34.76-2.21,1.6-2.34,2.92-0.35,3.69,4.86,2.46,6.41.65,0.31-.36.39,0,0.41,0s0.09,2.35,2.69,1.6a5.77,5.77,0,0,0,.76-0.31s-0.06-.21-0.12-0.38m-3.66-2.08c0,1-3.24,2.24-4,.75a1.46,1.46,0,0,1,.05-1.5c0.58-1.12,3.54-2.33,3.9-2.48,0,0,0,2.2,0,3.23" transform="translate(-47.48 -63.72)"/><path class="cls-3" d="M547.7,167c-1.1.21-1.05-.48-1.05-0.48s0-7.26,0-7.26c0-1.91-.61-2.86-2.75-2.75a9.46,9.46,0,0,0-3.63,1c-2.09.92-3.33,2.93-2,3.8,0.85,0.57,2.43-.19,2.4-2a2.57,2.57,0,0,1,2-1.66c0.38-.08,1.5-0.23,1.5.69a11.7,11.7,0,0,1-.09,2.4c-0.19.48-2.56,1-4.1,1.87-1.34.76-2.21,1.6-2.34,2.92-0.35,3.7,4.86,2.46,6.42.65,0.31-.36.39,0,0.41,0s0.09,2.35,2.69,1.6a5.6,5.6,0,0,0,.76-0.31s-0.06-.21-0.12-0.38M544,164.91c0,1-3.24,2.24-4,.75a1.46,1.46,0,0,1,.05-1.5c0.58-1.12,3.54-2.33,3.91-2.48,0,0,0,2.2,0,3.23" transform="translate(-47.48 -63.72)"/><path class="cls-3" d="M399.81,174.4H451.4V123.79H399.81V174.4Zm37.43-41.1c0.87-1.42,2.37-2.07,3.35-1.45s1.07,2.28.2,3.7-2.37,2.07-3.34,1.45-1.07-2.28-.2-3.7m-11.6-1.08c1,0,1.77,1.13,1.77,2.51s-0.8,2.51-1.77,2.51-1.78-1.13-1.78-2.51,0.8-2.51,1.78-2.51m-14.91-.37c1-.62,2.48,0,3.34,1.45s0.78,3.08-.19,3.7-2.48,0-3.35-1.45-0.78-3.08.2-3.7m37.15,14c-0.57.33-1.25-.64-1.92-1.51-1.33-1.71-3.89-3.11-5-2.13-1.28,1.17.07,3,1.16,5.67a15.53,15.53,0,0,1,.63,7.18c-0.37,4,1.45,5.34.38,6s-2.91-2.53-3.3-6.48c-0.2-2-.13-4-0.91-4s-0.89,3.9-.61,5.83c0.54,3.74,2.49,5.61,2.14,9.42-0.24,2.69-1.91,2.8-1.94.08-0.06-4.45-4.24-6.72-3.93-14.5,0.19-4.65.85-8.16-1.57-13.17-0.45-.92-1.15-2.47-1.71-3.91a11.5,11.5,0,0,1-.94,2.22c-0.5.93-2.62,3.74-1.74,7.58,0.44,1.93-.28,4-0.66,5.66-0.65,2.83.46,3.93-.51,4.22s-1.72-2.77-1.56-5.06c0.11-1.51.54-2.74,0-2.85-0.87-.18-1.32,2.5-1.34,3.9-0.06,2.69,1,4.28.37,6.94-0.55,2.2-1.85,2.14-1.56,0,0.5-3.72-2.29-6-.83-11.7,1.08-4.2,1.06-4.21-1.74-8.85a15.29,15.29,0,0,1-.88-2c-0.56,1.43-1.25,2.95-1.69,3.85-2.42,5-1.76,8.52-1.57,13.17,0.31,7.77-3.87,10.05-3.92,14.5,0,2.72-1.7,2.61-1.94-.08-0.35-3.82,1.6-5.68,2.14-9.42,0.28-1.93.28-5.83-.62-5.83s-0.71,2-.91,4c-0.4,3.95-2.22,7.19-3.31,6.48s0.75-2,.38-6a15.45,15.45,0,0,1,.63-7.18c1.08-2.64,2.44-4.51,1.15-5.67-1.08-1-3.63.42-5,2.13-0.67.87-1.35,1.84-1.92,1.51-0.8-.47.89-4.08,4-6s5.1-1.18,8.14-3.32a9.59,9.59,0,0,0,3.78-4.86c0.46-1.15.66-1.51,1-1.51s0.49,0,.49,1.17v0c0,1.69,1.2,6.21,4.78,6.22,3.9,0,4.84-4.72,4.84-6.13,0,0,0-.07,0-0.11v0c0-1.13.27-1.17,0.49-1.17s0.55,0.36,1,1.51a9.58,9.58,0,0,0,3.78,4.86c3,2.14,5,1.36,8.14,3.32s4.78,5.56,4,6" transform="translate(-47.48 -63.72)"/></g><rect class="cls-4" x="543.92" y="24.74" width="83.24" height="99.89" rx="3.33" ry="3.33"/><rect class="cls-5" x="547.91" y="28.65" width="75.25" height="92.07" rx="2.25" ry="2.25"/><path class="cls-6" d="M552.53,31.52h66a1.67,1.67,0,0,1,1.67,1.67v83a1.67,1.67,0,0,1-1.67,1.67h-66a1.66,1.66,0,0,1-1.66-1.66v-83A1.67,1.67,0,0,1,552.53,31.52Z"/><rect class="cls-7" x="553.24" y="33.81" width="64.6" height="81.74" rx="1.25" ry="1.25"/><path class="cls-8" d="M617.89,166c-0.19-.8-0.55-2.24-0.73-2.82h-5.52c-0.18.59-.54,2-0.73,2.82h-5c2.1-6.64,3.06-9.44,5.41-15.33h6.07c2.35,5.89,3.31,8.69,5.41,15.33h-5Zm-5.56-6.13h4.14c-0.58-2.05-1.68-5.46-2.07-6.44C614,154.42,612.92,157.83,612.34,159.88Z" transform="translate(-47.48 -63.72)"/><path class="cls-8" d="M628.3,166c-2.58,0-4-1.47-4-4.14V150.68h4.64V161c0,1.29.35,1.62,1.72,1.62h4.5l0.69,3.4H628.3Z" transform="translate(-47.48 -63.72)"/><rect class="cls-8" x="607.12" y="86.96" width="4.63" height="15.33"/><path class="cls-8" d="M637.69,166V150.68h6.41c4.71,0,8,1.92,8,7.54s-2.63,7.79-7.8,7.79h-6.61Zm4.64-3.31h1.31c2.84,0,4-1.27,4-4.47,0-3-1.38-4.23-4.14-4.23h-1.14v8.7Z" transform="translate(-47.48 -63.72)"/><path class="cls-9" d="M631.23,105.78c-2.87,0-4,2-5.11,5.14l-9.79,28.83c-0.84,2.48-1.91,4-3.69,4.19v0.16h5.08c2.87,0,4-2,5.11-5.14l9.79-28.83c0.84-2.48,2-4,3.79-4.19v-0.16h-5.18Z" transform="translate(-47.48 -63.72)"/><path class="cls-10" d="M640.44,105.73c-2.87,0-4,2-5.11,5.14l-9.79,28.8c-0.84,2.48-1.91,4-3.69,4.19V144h5.08c2.87,0,4-2,5.11-5.14l9.79-28.8c0.84-2.48,2-4,3.79-4.19v-0.16h-5.18Z" transform="translate(-47.48 -63.72)"/><path class="cls-11" d="M622,105.84c-2.87,0-4,2-5.11,5.14l-11.29,33.21h2.88c2.87,0,4-2,5.11-5.14l9.8-28.86c0.84-2.48,2-4,3.79-4.19v-0.16H622Z" transform="translate(-47.48 -63.72)"/><path class="cls-12" d="M651.29,119.21c-1.07-2.17-2.21-2.45-4.22-2.45H642l-2,5.94h10c1.44,0,2.61.19,3.42,1.27h0.18S651.55,119.73,651.29,119.21Z" transform="translate(-47.48 -63.72)"/><path class="cls-13" d="M654.93,127.78c-1-2.1-2.21-2.44-4.22-2.44H639.05l-2,5.94h16.49c1.48,0,2.58.22,3.41,1.31h0.18S655.18,128.3,654.93,127.78Z" transform="translate(-47.48 -63.72)"/><path class="cls-14" d="M658.66,136.65c-1-2.34-2.34-2.69-4.36-2.69H636.12l-1.67,4.92q-0.18.53-.37,1h23a3.72,3.72,0,0,1,3.3,1.34h0.18S658.78,136.92,658.66,136.65Z" transform="translate(-47.48 -63.72)"/><path class="cls-15" d="M399.94,85.82h4a5.4,5.4,0,0,1,1.65.24,3.78,3.78,0,0,1,1.27.68,2.92,2.92,0,0,1,.81,1.07,3.43,3.43,0,0,1,.28,1.43v0a3.17,3.17,0,0,1-1.25,2.62,4,4,0,0,1-1.34.67,5.81,5.81,0,0,1-1.63.22h-2.61v3.79h-1.21V85.82Zm3.87,5.86a4.08,4.08,0,0,0,1.21-.17A2.81,2.81,0,0,0,406,91a2.14,2.14,0,0,0,.6-0.75,2.2,2.2,0,0,0,.21-1v0a2,2,0,0,0-.79-1.75,3.42,3.42,0,0,0-2.1-.59h-2.72v4.74h2.66Z" transform="translate(-47.48 -63.72)"/><path class="cls-15" d="M409.69,88.63h1.18V90.7a4.22,4.22,0,0,1,.54-0.91,3.57,3.57,0,0,1,.74-0.71,3.12,3.12,0,0,1,.91-0.45,3.2,3.2,0,0,1,1.06-.14v1.27H414a3.25,3.25,0,0,0-1.22.23,2.77,2.77,0,0,0-1,.69,3.27,3.27,0,0,0-.67,1.14,4.64,4.64,0,0,0-.25,1.57v3.16h-1.18V88.63Z" transform="translate(-47.48 -63.72)"/><path class="cls-15" d="M419.21,96.74a4,4,0,0,1-1.64-.33,4.15,4.15,0,0,1-1.3-.89,4,4,0,0,1-.86-1.3,4.12,4.12,0,0,1-.31-1.59v0a4.17,4.17,0,0,1,.31-1.6,4,4,0,0,1,2.17-2.22,4.19,4.19,0,0,1,4.63.89,4,4,0,0,1,.86,1.3,4.13,4.13,0,0,1,.31,1.59v0a4.11,4.11,0,0,1-.31,1.6,4.19,4.19,0,0,1-.87,1.32,4,4,0,0,1-1.32.9A4.16,4.16,0,0,1,419.21,96.74Zm0-1.06a2.81,2.81,0,0,0,1.18-.25,2.87,2.87,0,0,0,.92-0.66,3,3,0,0,0,.6-1,3.23,3.23,0,0,0,.21-1.18v0a3.24,3.24,0,0,0-.22-1.2,3.06,3.06,0,0,0-.62-1,3,3,0,0,0-.94-0.67,2.77,2.77,0,0,0-1.17-.24,2.81,2.81,0,0,0-1.18.24,2.75,2.75,0,0,0-.91.66,3.05,3.05,0,0,0-.59,1,3.28,3.28,0,0,0-.21,1.19v0a3.22,3.22,0,0,0,.22,1.2,3,3,0,0,0,.61,1,3,3,0,0,0,.93.66A2.77,2.77,0,0,0,419.24,95.68Z" transform="translate(-47.48 -63.72)"/><path class="cls-15" d="M428.11,96.73a3.34,3.34,0,0,1-1.28-.23,2.66,2.66,0,0,1-1-.65,2.88,2.88,0,0,1-.6-1,3.83,3.83,0,0,1-.21-1.29V88.63h1.18v4.62a2.54,2.54,0,0,0,.57,1.75,2.05,2.05,0,0,0,1.63.64,2.5,2.5,0,0,0,.94-0.18,2.12,2.12,0,0,0,.75-0.51,2.45,2.45,0,0,0,.5-0.79,2.69,2.69,0,0,0,.18-1V88.63H432v7.93h-1.17V95.18a3.74,3.74,0,0,1-1,1.1A2.85,2.85,0,0,1,428.11,96.73Z" transform="translate(-47.48 -63.72)"/><path class="cls-15" d="M437.67,96.73a3.66,3.66,0,0,1-1.4-.28,3.72,3.72,0,0,1-1.21-.81,4,4,0,0,1-.86-1.29,4.43,4.43,0,0,1-.32-1.74v0a4.44,4.44,0,0,1,.32-1.73,3.91,3.91,0,0,1,.86-1.3,3.83,3.83,0,0,1,1.21-.81,3.58,3.58,0,0,1,1.4-.28,3.5,3.5,0,0,1,1,.14,3.41,3.41,0,0,1,.83.37,3.59,3.59,0,0,1,.67.54,4.77,4.77,0,0,1,.53.64V85.36h1.18v11.2h-1.18V95a6.13,6.13,0,0,1-.54.68,3.72,3.72,0,0,1-.67.57,3.08,3.08,0,0,1-.82.38A3.46,3.46,0,0,1,437.67,96.73Zm0.21-1.06a2.65,2.65,0,0,0,1.07-.22,3,3,0,0,0,.92-0.63,3,3,0,0,0,.64-1,3.17,3.17,0,0,0,.24-1.25v0a3.16,3.16,0,0,0-.24-1.25,2.93,2.93,0,0,0-.64-1,3,3,0,0,0-.92-0.62,2.65,2.65,0,0,0-1.07-.22,2.84,2.84,0,0,0-1.09.21,2.53,2.53,0,0,0-.88.6,2.87,2.87,0,0,0-.6,1,3.5,3.5,0,0,0-.22,1.29v0a3.46,3.46,0,0,0,.22,1.27,2.9,2.9,0,0,0,.61,1,2.65,2.65,0,0,0,.89.61A2.72,2.72,0,0,0,437.88,95.67Z" transform="translate(-47.48 -63.72)"/><path class="cls-15" d="M444.33,85.36h1.18v11.2h-1.18V85.36Z" transform="translate(-47.48 -63.72)"/><path class="cls-15" d="M449.17,99.06a3.69,3.69,0,0,1-.89-0.1,3.85,3.85,0,0,1-.8-0.3l0.4-.94a2.5,2.5,0,0,0,.58.22,2.84,2.84,0,0,0,.67.07,1.33,1.33,0,0,0,.91-0.32,3.22,3.22,0,0,0,.72-1.17l-3.6-7.9h1.3l2.88,6.61,2.55-6.61h1.26l-3.33,8.19a4.35,4.35,0,0,1-1.13,1.73A2.31,2.31,0,0,1,449.17,99.06Z" transform="translate(-47.48 -63.72)"/><path class="cls-15" d="M461,88.63h1.18v1.6a6.24,6.24,0,0,1,.54-0.68,3.42,3.42,0,0,1,1.49-.94,3.26,3.26,0,0,1,1-.15,3.68,3.68,0,0,1,1.39.28,3.73,3.73,0,0,1,1.22.81,4,4,0,0,1,.86,1.29,4.43,4.43,0,0,1,.32,1.74v0a4.43,4.43,0,0,1-.32,1.73,4,4,0,0,1-.85,1.3,3.74,3.74,0,0,1-1.21.81,3.64,3.64,0,0,1-1.4.28,3.54,3.54,0,0,1-1-.14,3.39,3.39,0,0,1-.83-0.37,3.56,3.56,0,0,1-.67-0.54,4.73,4.73,0,0,1-.53-0.65v4H461V88.63Zm4,7a2.86,2.86,0,0,0,1.08-.21,2.52,2.52,0,0,0,.89-0.6,2.88,2.88,0,0,0,.6-1,3.5,3.5,0,0,0,.22-1.29v0a3.46,3.46,0,0,0-.22-1.27,2.91,2.91,0,0,0-.61-1,2.67,2.67,0,0,0-.89-0.61,2.71,2.71,0,0,0-1.07-.21,2.65,2.65,0,0,0-1.07.22,3,3,0,0,0-.92.63,3,3,0,0,0-.64,1,3.13,3.13,0,0,0-.24,1.23v0a3.22,3.22,0,0,0,.24,1.26,2.9,2.9,0,0,0,.64,1,3,3,0,0,0,.92.62A2.65,2.65,0,0,0,465,95.67Z" transform="translate(-47.48 -63.72)"/><path class="cls-15" d="M470.88,88.63h1.18V90.7a4.22,4.22,0,0,1,.54-0.91,3.57,3.57,0,0,1,.74-0.71,3.12,3.12,0,0,1,.91-0.45,3.2,3.2,0,0,1,1.06-.14v1.27h-0.09A3.25,3.25,0,0,0,474,90a2.77,2.77,0,0,0-1,.69,3.27,3.27,0,0,0-.67,1.14,4.64,4.64,0,0,0-.25,1.57v3.16h-1.18V88.63Z" transform="translate(-47.48 -63.72)"/><path class="cls-15" d="M477.49,93.07a3.15,3.15,0,0,0,.31,1.12,2.67,2.67,0,0,0,.63.83,2.73,2.73,0,0,0,.86.51,2.85,2.85,0,0,0,1,.18,3,3,0,0,0,1.42-.31,4.19,4.19,0,0,0,1.08-.81l0.74,0.66a4.86,4.86,0,0,1-1.36,1.08,4,4,0,0,1-1.9.41,4,4,0,0,1-1.53-.3,3.78,3.78,0,0,1-1.26-.84,4,4,0,0,1-.85-1.31,4.4,4.4,0,0,1-.31-1.69,4.58,4.58,0,0,1,.28-1.62,4.07,4.07,0,0,1,.79-1.32,3.69,3.69,0,0,1,1.2-.88,3.83,3.83,0,0,1,3.09,0,3.43,3.43,0,0,1,1.16.9,3.9,3.9,0,0,1,.72,1.33,5.36,5.36,0,0,1,.25,1.64v0.18a2.29,2.29,0,0,1,0,.24h-6.29Zm5.11-1a3.71,3.71,0,0,0-.23-1,2.85,2.85,0,0,0-.5-0.85,2.28,2.28,0,0,0-.77-0.58,2.4,2.4,0,0,0-1-.21,2.32,2.32,0,0,0-1,.2,2.42,2.42,0,0,0-.78.56,3.09,3.09,0,0,0-.56.85,3.38,3.38,0,0,0-.28,1.05h5.11Z" transform="translate(-47.48 -63.72)"/><path class="cls-15" d="M488.18,96.71a5.1,5.1,0,0,1-1.73-.31,5.41,5.41,0,0,1-1.55-.85l0.6-.84a5.23,5.23,0,0,0,1.34.75,4,4,0,0,0,1.4.26,2,2,0,0,0,1.18-.34,1.08,1.08,0,0,0,.46-0.92v0a0.82,0.82,0,0,0-.16-0.51,1.47,1.47,0,0,0-.44-0.38,3.59,3.59,0,0,0-.64-0.28L487.91,93l-0.93-.3a3.8,3.8,0,0,1-.84-0.41,2.05,2.05,0,0,1-.61-0.61,1.66,1.66,0,0,1-.24-0.92v0a2.15,2.15,0,0,1,.2-0.93,2.07,2.07,0,0,1,.56-0.72,2.54,2.54,0,0,1,.86-0.46,3.5,3.5,0,0,1,1.08-.16,4.92,4.92,0,0,1,1.49.24,5.6,5.6,0,0,1,1.37.64l-0.54.89a5.39,5.39,0,0,0-1.16-.56,3.69,3.69,0,0,0-1.19-.21,1.75,1.75,0,0,0-1.12.33,1,1,0,0,0-.41.82v0a0.74,0.74,0,0,0,.17.48,1.48,1.48,0,0,0,.45.36,4,4,0,0,0,.65.28L488.46,92c0.31,0.09.61,0.19,0.91,0.31a3.55,3.55,0,0,1,.82.43,2.09,2.09,0,0,1,.59.63,1.73,1.73,0,0,1,.22.91v0a2.2,2.2,0,0,1-.22,1,2.29,2.29,0,0,1-.6.74,2.63,2.63,0,0,1-.89.47A3.71,3.71,0,0,1,488.18,96.71Z" transform="translate(-47.48 -63.72)"/><path class="cls-15" d="M493.6,93.07a3.18,3.18,0,0,0,.31,1.12,2.68,2.68,0,0,0,.63.83,2.73,2.73,0,0,0,.86.51,2.85,2.85,0,0,0,1,.18,3,3,0,0,0,1.42-.31,4.19,4.19,0,0,0,1.08-.81l0.74,0.66a4.86,4.86,0,0,1-1.36,1.08,4,4,0,0,1-1.9.41,4,4,0,0,1-1.53-.3,3.77,3.77,0,0,1-1.26-.84,4,4,0,0,1-.85-1.31,4.4,4.4,0,0,1-.31-1.69,4.58,4.58,0,0,1,.28-1.62,4.09,4.09,0,0,1,.79-1.32,3.68,3.68,0,0,1,1.2-.88,3.83,3.83,0,0,1,3.09,0,3.43,3.43,0,0,1,1.17.9,3.9,3.9,0,0,1,.72,1.33,5.36,5.36,0,0,1,.24,1.64v0.18a2.25,2.25,0,0,1,0,.24H493.6Zm5.11-1a3.76,3.76,0,0,0-.23-1,2.87,2.87,0,0,0-.5-0.85,2.29,2.29,0,0,0-.77-0.58,2.4,2.4,0,0,0-1-.21,2.32,2.32,0,0,0-1,.2,2.42,2.42,0,0,0-.78.56,3.09,3.09,0,0,0-.56.85,3.4,3.4,0,0,0-.28,1.05h5.11Z" transform="translate(-47.48 -63.72)"/><path class="cls-15" d="M501.67,88.63h1.18V90a3.73,3.73,0,0,1,1-1.1,2.85,2.85,0,0,1,1.67-.45,3.34,3.34,0,0,1,1.28.23,2.66,2.66,0,0,1,1,.65,2.89,2.89,0,0,1,.6,1,3.82,3.82,0,0,1,.21,1.29v4.92h-1.18V91.93a2.55,2.55,0,0,0-.57-1.75,2.05,2.05,0,0,0-1.63-.64,2.48,2.48,0,0,0-.94.18,2.19,2.19,0,0,0-.76.5,2.28,2.28,0,0,0-.5.79,2.79,2.79,0,0,0-.18,1v4.53h-1.18V88.63Z" transform="translate(-47.48 -63.72)"/><path class="cls-15" d="M513.46,96.7a3.1,3.1,0,0,1-.89-0.12,1.83,1.83,0,0,1-.71-0.39,1.81,1.81,0,0,1-.47-0.7,2.79,2.79,0,0,1-.17-1V89.67h-1.1v-1h1.1V86.23h1.18v2.39h2.52v1h-2.52v4.62a1.24,1.24,0,0,0,.37,1,1.51,1.51,0,0,0,1,.29,2.73,2.73,0,0,0,.58-0.06,2.66,2.66,0,0,0,.57-0.2v1a2.67,2.67,0,0,1-.65.25A3.27,3.27,0,0,1,513.46,96.7Z" transform="translate(-47.48 -63.72)"/><path class="cls-15" d="M517.41,93.07a3.18,3.18,0,0,0,.31,1.12,2.68,2.68,0,0,0,.63.83,2.71,2.71,0,0,0,.86.51,2.85,2.85,0,0,0,1,.18,3,3,0,0,0,1.42-.31,4.19,4.19,0,0,0,1.08-.81l0.74,0.66a4.86,4.86,0,0,1-1.36,1.08,4,4,0,0,1-1.9.41,4,4,0,0,1-1.53-.3,3.79,3.79,0,0,1-1.26-.84,4,4,0,0,1-.85-1.31,4.4,4.4,0,0,1-.31-1.69,4.58,4.58,0,0,1,.28-1.62,4,4,0,0,1,.79-1.32,3.68,3.68,0,0,1,1.2-.88,3.83,3.83,0,0,1,3.09,0,3.43,3.43,0,0,1,1.17.9,3.9,3.9,0,0,1,.72,1.33,5.36,5.36,0,0,1,.24,1.64v0.18a2.25,2.25,0,0,1,0,.24h-6.29Zm5.11-1a3.76,3.76,0,0,0-.23-1,2.87,2.87,0,0,0-.5-0.85,2.29,2.29,0,0,0-.77-0.58,2.4,2.4,0,0,0-1-.21,2.32,2.32,0,0,0-1,.2,2.42,2.42,0,0,0-.78.56,3.12,3.12,0,0,0-.56.85,3.4,3.4,0,0,0-.28,1.05h5.11Z" transform="translate(-47.48 -63.72)"/><path class="cls-15" d="M528.8,96.73a3.66,3.66,0,0,1-1.4-.28,3.72,3.72,0,0,1-1.21-.81,4,4,0,0,1-.86-1.29,4.43,4.43,0,0,1-.32-1.74v0a4.44,4.44,0,0,1,.32-1.73,3.91,3.91,0,0,1,.86-1.3,3.83,3.83,0,0,1,1.21-.81,3.58,3.58,0,0,1,1.4-.28,3.5,3.5,0,0,1,1,.14,3.41,3.41,0,0,1,.83.37,3.57,3.57,0,0,1,.67.54,4.72,4.72,0,0,1,.53.64V85.36H533v11.2h-1.18V95a6.05,6.05,0,0,1-.54.68,3.76,3.76,0,0,1-.67.57,3.08,3.08,0,0,1-.82.38A3.47,3.47,0,0,1,528.8,96.73ZM529,95.67a2.65,2.65,0,0,0,1.07-.22,3,3,0,0,0,.92-0.63,3,3,0,0,0,.64-1,3.17,3.17,0,0,0,.24-1.25v0a3.16,3.16,0,0,0-.24-1.25,2.93,2.93,0,0,0-.64-1,3,3,0,0,0-.92-0.62,2.65,2.65,0,0,0-1.07-.22,2.84,2.84,0,0,0-1.09.21,2.54,2.54,0,0,0-.88.6,2.88,2.88,0,0,0-.6,1,3.5,3.5,0,0,0-.22,1.29v0a3.46,3.46,0,0,0,.22,1.27,2.92,2.92,0,0,0,.61,1,2.66,2.66,0,0,0,.89.61A2.71,2.71,0,0,0,529,95.67Z" transform="translate(-47.48 -63.72)"/><path class="cls-15" d="M543.87,96.73a3.55,3.55,0,0,1-1-.14,3.41,3.41,0,0,1-.83-0.37,3.6,3.6,0,0,1-.67-0.54,4.73,4.73,0,0,1-.53-0.65v1.52h-1.18V85.36h1.18v4.86a6.17,6.17,0,0,1,.54-0.68A3.49,3.49,0,0,1,542,89a3.44,3.44,0,0,1,.82-0.38,3.26,3.26,0,0,1,1-.15,3.68,3.68,0,0,1,1.39.28,3.73,3.73,0,0,1,1.22.81,4,4,0,0,1,.86,1.29,4.43,4.43,0,0,1,.32,1.74v0a4.43,4.43,0,0,1-.32,1.73,4,4,0,0,1-.85,1.3,3.74,3.74,0,0,1-1.21.81A3.63,3.63,0,0,1,543.87,96.73Zm-0.21-1.06a2.85,2.85,0,0,0,1.08-.21,2.52,2.52,0,0,0,.89-0.6,2.88,2.88,0,0,0,.6-1,3.5,3.5,0,0,0,.22-1.29v0a3.46,3.46,0,0,0-.22-1.27,2.93,2.93,0,0,0-.61-1,2.68,2.68,0,0,0-.89-0.61,2.71,2.71,0,0,0-1.07-.21,2.65,2.65,0,0,0-1.07.22,3,3,0,0,0-.92.63,3,3,0,0,0-.64,1,3.11,3.11,0,0,0-.24,1.23v0a3.2,3.2,0,0,0,.24,1.26,2.86,2.86,0,0,0,.64,1,3,3,0,0,0,.92.62A2.65,2.65,0,0,0,543.65,95.67Z" transform="translate(-47.48 -63.72)"/><path class="cls-15" d="M550.76,99.06a3.69,3.69,0,0,1-.89-0.1,3.85,3.85,0,0,1-.8-0.3l0.4-.94a2.51,2.51,0,0,0,.57.22,2.85,2.85,0,0,0,.67.07,1.33,1.33,0,0,0,.91-0.32,3.21,3.21,0,0,0,.72-1.17l-3.6-7.9H550l2.88,6.61,2.55-6.61h1.26l-3.33,8.19a4.35,4.35,0,0,1-1.13,1.73A2.31,2.31,0,0,1,550.76,99.06Z" transform="translate(-47.48 -63.72)"/><line class="cls-16" x1="327.93" y1="126.07" x2="327.93" y2="18.64"/><path class="cls-3" d="M139.1,124.08a30,30,0,0,0,17.28-.17,18.86,18.86,0,0,0,12.7-11.81,24,24,0,0,0-.75-19.27,18.26,18.26,0,0,0-11.85-10.21,31.77,31.77,0,0,0-9.58-1.29,24.94,24.94,0,0,0-7.73,1C131.86,84.36,127,89,125,96.39a24.86,24.86,0,0,0-.21,12.56C126.72,116.64,131.34,121.9,139.1,124.08Zm0.82-26.88a13.55,13.55,0,0,1,1.38-3.88,7.1,7.1,0,0,1,12.3.08,14.32,14.32,0,0,1,1.55,5,35.55,35.55,0,0,1,0,9.64,14.91,14.91,0,0,1-1.56,5,7.06,7.06,0,0,1-12.29.11,15.72,15.72,0,0,1-1.81-6.6c-0.1-1.14,0-2.3,0-3.45A23.25,23.25,0,0,1,139.92,97.2Z" transform="translate(-47.48 -63.72)"/><path class="cls-3" d="M174.08,90c1.31,0,2.61,0,3.92.05a0.69,0.69,0,0,1,.74.7q0,0.81,0,1.61,0,9.92,0,19.84c0,1.08,0,2.16.07,3.23,0.48,6,4.45,8.9,8.48,9.53a24.82,24.82,0,0,0,11.38-.94,20.51,20.51,0,0,0,9.18-6c0.55-.61.58-0.8,0.09-1.39-1.41-1.72-2.85-3.41-4.39-5.24-1.15.95-2.07,1.75-3,2.5a10.92,10.92,0,0,1-3,1.71c-2.41.85-4.17-.15-4.52-2.64a20.17,20.17,0,0,1-.14-2.76q0-8.65,0-17.3c0-3.29-.35-2.9,3-2.92,2.46,0,4.92,0,7.38,0,1,0,1.25-.21,1.27-1.19q0-2.65,0-5.31c0-.9-0.22-1.1-1.08-1.13-1.08,0-2.15,0-3.23,0-2.08,0-4.15,0-6.23,0-0.89,0-1.06-.19-1.08-1.11,0-1.54,0-3.08,0-4.61,0-2.15,0-4.31,0-6.46a0.84,0.84,0,0,0-1-1q-3.11,0-6.23,0c-1,0-1.12.21-1.31,1.23s-0.33,2-.56,2.94a12.65,12.65,0,0,1-3.52,6.37,13.27,13.27,0,0,1-6.14,3.48c-0.91.22-1,.36-1,1.23q0,2.31,0,4.61A0.83,0.83,0,0,0,174.08,90Z" transform="translate(-47.48 -63.72)"/><path class="cls-3" d="M63,81.72a0.89,0.89,0,0,1-.17.58h0.38A0.8,0.8,0,0,1,63,81.72h0Z" transform="translate(-47.48 -63.72)"/><path class="cls-3" d="M48.39,124.59l1.39,0H68l1.38,0a0.8,0.8,0,0,0,.88-0.84c0-1.69,0-3.39,0-5.08a0.88,0.88,0,0,0-.75-1c-0.45-.09-0.91-0.15-1.36-0.26-0.89-.22-1.8-0.4-2.67-0.7a3.57,3.57,0,0,1-2.46-2.8,14.82,14.82,0,0,1-.26-3.21q0-8.31,0-16.63c0-3.93,0-7.85.05-11.77a3.48,3.48,0,0,1,0-.44,0.31,0.31,0,0,1,.11-0.17l0.09,0c0-.08,0-0.16,0-0.23,0,0.08,0,.16,0,0.24a0.29,0.29,0,0,1,.18.12,1.36,1.36,0,0,1,0,.44h0c0.19,0.5.39,1,.56,1.51l10.57,32.46c0.79,2.41,1.58,4.82,2.35,7.24a1.39,1.39,0,0,0,1.51,1.11c2.39,0,4.77,0,7.16,0a1.31,1.31,0,0,0,1.52-1.07,11.2,11.2,0,0,1,.37-1.09l5.57-16.86c2.31-7,4.79-14,7.12-21,0.17-.52-0.12-1.18,1.14-1.55v2.65c0,7.85-.17,15.7-0.17,23.55,0,0.85-.08,1.69-0.11,2.54-0.16,3.73-1.39,5.05-5.11,5.63a11.56,11.56,0,0,0-2.78.54,42.54,42.54,0,0,0-.12,5.74c0,0.68.26,0.89,1,.93,0.46,0,.92,0,1.38,0h25.63c0.54,0,1.08,0,1.61,0a0.81,0.81,0,0,0,.84-0.89c0-1.91,0-3.83,0-5.67a6.42,6.42,0,0,0-2.15-.59,22.69,22.69,0,0,1-2.47-.57,3.79,3.79,0,0,1-2.88-3.48,44.43,44.43,0,0,1-.06-5.3q0-12.35,0-24.71a13,13,0,0,0,0-1.61,15.63,15.63,0,0,1,.15-3.22,3.82,3.82,0,0,1,3.24-3.67,17.59,17.59,0,0,1,3.19-.5c0.8,0,1-.24,1-0.95,0-1.69,0-3.39,0-5.08a0.78,0.78,0,0,0-.81-0.9c-0.62,0-1.23,0-1.85,0-7.08,0-14.16,0-21.24,0-3.42,0-2.73-.43-3.77,2.71C92.33,80,89.1,90,85.82,99.92a5.31,5.31,0,0,1-1.18,2.59c-0.37-1.12-.72-2.13-1.05-3.15q-4.84-15-9.68-30.08c-0.66-2.07-.57-1.87-2.53-1.87H49.45c-0.38,0-.77,0-1.15,0a0.69,0.69,0,0,0-.78.66q0,2.77,0,5.54a0.76,0.76,0,0,0,.73.74A31.91,31.91,0,0,1,51.4,75a3.64,3.64,0,0,1,2.81,3,16.79,16.79,0,0,1,.25,2.52c0,3.31,0,6.62,0,9.93q0,10.16,0,20.32a14.52,14.52,0,0,1-.24,3A4,4,0,0,1,51.28,117a22,22,0,0,1-2.94.55,0.9,0.9,0,0,0-.86.91c0,1.77,0,3.54,0,5.31A0.8,0.8,0,0,0,48.39,124.59Z" transform="translate(-47.48 -63.72)"/><path class="cls-3" d="M212.94,74.33a12.66,12.66,0,0,1,3.41.52,2.76,2.76,0,0,1,2.08,2.49,30.53,30.53,0,0,1,.14,3.23q0,15,0,30c0,1,0,2-.07,3a3.39,3.39,0,0,1-2.66,3.35c-0.81.24-1.65,0.37-2.47,0.56a0.91,0.91,0,0,0-.92,1.1c0,1.69,0,3.39,0,5.08a0.8,0.8,0,0,0,.81.91c0.38,0,.77,0,1.15,0h20.78c0.46,0,.92,0,1.38,0a0.74,0.74,0,0,0,.77-0.71c0-1.85,0-3.69,0-5.54a0.89,0.89,0,0,0-.67-0.83c-0.22-.08-0.45-0.1-0.67-0.16-2.65-.79-3-1.26-3.24-4,0-.15,0-0.31,0-0.46,0-5.92,0-11.85-.05-17.77a2,2,0,0,1,1.09-1.87,16.84,16.84,0,0,1,6.88-2.51,8.59,8.59,0,0,1,2.07,0,2.53,2.53,0,0,1,2.21,1.76,8.14,8.14,0,0,1,.37,3q0,8,0,15.93c0,0.62,0,1.23-.06,1.85-0.14,2-1,3.52-3.09,4.08-0.22.06-.44,0.14-0.67,0.19a1,1,0,0,0-.84,1.19c0,1.39,0,2.77,0,4.16,0,1.78,0,1.78,1.78,1.82h20.31c0.46,0,.92,0,1.38,0a0.85,0.85,0,0,0,1-1c0-1.62,0-3.23,0-4.85a1,1,0,0,0-1-1.29c-0.6-.15-1.2-0.29-1.8-0.42a3.18,3.18,0,0,1-2.66-3.06c-0.13-1.3-.19-2.61-0.2-3.92,0-4.31,0-8.62,0-12.93,0-1.77-.1-3.54-0.24-5.3a9.68,9.68,0,0,0-2.81-6.17,13.83,13.83,0,0,0-9.66-4.29,23.1,23.1,0,0,0-10.07,2.11c-1,.42-1.94.93-2.92,1.39-0.71.33-.94,0.16-1-0.68,0-.61,0-1.23,0-1.85q0-8,0-15.93,0-.92,0-1.85a0.71,0.71,0,0,0-.69-0.77c-1.83,0-3.64-.22-5.45.54a38.78,38.78,0,0,1-11.61,2.82c-0.91.08-1.81,0.24-2.77,0.37a40.42,40.42,0,0,0-.13,6.06A0.79,0.79,0,0,0,212.94,74.33Z" transform="translate(-47.48 -63.72)"/><path class="cls-3" d="M185.14,153a29.43,29.43,0,0,0,.26,17.51,24.44,24.44,0,0,0,14.49,15.8,31.55,31.55,0,0,0,21,1.16c7.49-2.08,12.53-7.24,16.3-13.79,0.29-.5.18-0.77-0.43-1.09-2.53-1.29-5.08-2.55-7.84-3.93-0.47.66-.79,1.18-1.17,1.66-0.91,1.14-1.77,2.34-2.78,3.38a13.36,13.36,0,0,1-8.42,4.39c-4.57.43-8.33-1-10.9-5a15.41,15.41,0,0,1-1.57-3.33,24.73,24.73,0,0,1-1.23-6.36c-0.21-2.89-.38-2.74,2.4-2.74h28.4c0.62,0,1.23,0,1.85,0a0.8,0.8,0,0,0,.87-0.85,28.86,28.86,0,0,0-.63-8c-1.8-7.66-6.53-12.77-13.81-15.49a29.75,29.75,0,0,0-21-.1A24.21,24.21,0,0,0,185.14,153Zm29.92-7.3a6.94,6.94,0,0,1,3.48,6.16c-1.78.47-3.47,0.18-5.14,0.23s-3.23,0-4.84,0a33.7,33.7,0,0,1-5-.13C203.29,147.26,209.58,142.57,215.06,145.7Z" transform="translate(-47.48 -63.72)"/><path class="cls-3" d="M313.41,124.56c0.54,0,1.08,0,1.61,0h21.7c0.62,0,1.23,0,1.85,0a0.82,0.82,0,0,0,.88-0.86c0-1.08.06-2.16,0-3.23,0-.9.35-1.92-0.31-2.65s-1.46-.33-2.2-0.49l-0.45-.1a3.63,3.63,0,0,1-3-3.4,10.79,10.79,0,0,1-.07-1.15c0-5.93,0-11.85,0-17.78a1.72,1.72,0,0,1,1.73-2,3.24,3.24,0,0,1,2.23.37c0.59,0.36,1.19.7,1.78,1.07a7,7,0,0,0,3.5,1c4.24,0.2,7.4-3,6.89-7.06A6.33,6.33,0,0,0,345,82.84a9.66,9.66,0,0,0-4.33-.39,18.61,18.61,0,0,0-6.72,2.31c-0.67.37-1.34,0.76-2,1.09a0.43,0.43,0,0,1-.64-0.39,4.44,4.44,0,0,1,0-.69c0-2.7.09-2.37-2.58-2.39a7.75,7.75,0,0,0-1.15.07q-4.57.65-9.13,1.33c-1.44.21-2.89,0.44-4.32,0.7-1,.18-1.09.3-1.11,1.16,0,1.62,0,3.23,0,4.85a0.86,0.86,0,0,0,.93,1.05c0.83,0.17,1.67.28,2.48,0.51a3.55,3.55,0,0,1,2.89,3.44c0,0.77.1,1.54,0.1,2.31q0,6.7,0,13.39c0,0.69,0,1.39-.08,2.08-0.2,2.41-1.05,3.41-3.43,4-0.74.18-1.52,0.22-2.28,0.35a0.88,0.88,0,0,0-.83.93c0,1.77,0,3.54,0,5.31A0.7,0.7,0,0,0,313.41,124.56Z" transform="translate(-47.48 -63.72)"/><path class="cls-3" d="M85.49,139.58A8.56,8.56,0,0,1,92.2,142c0.5,0.48.92,1,1.39,1.54s0.67,0.67,1.58.26c0.34-.16.67-0.35,1.27-0.67-0.94-2-1.8-3.92-2.65-5.8a1.14,1.14,0,0,0-1.06-.74c-0.38,0-.77,0-1.15,0H76.82a12.26,12.26,0,0,0-1.37.09,0.56,0.56,0,0,0-.38.23,2.58,2.58,0,0,0-.13,1.78,0.87,0.87,0,0,0,.86.65c1.42,0.23,1.88,1.12,1.85,2.45,0,1.69,0,3.38,0,5.07q0,3.46,0,6.92a1.83,1.83,0,0,1-1.53,2c-1.24.33-1.22,0.41-1.22,1.54S75,158.56,76,158.57c3.15,0,6.3,0,9.45,0H85.7c0.7-.06.88-0.27,0.91-1,0-.23,0-0.46,0-0.69a0.93,0.93,0,0,0-.8-1,11,11,0,0,1-1.13-.23,1.41,1.41,0,0,1-1.11-1.32c-0.05-1.69-.05-3.38,0-5.06a0.65,0.65,0,0,1,.39-0.48c1.7-.27,2.89.09,3.3,1.64,0.12,0.44.17,0.91,0.28,1.35a0.81,0.81,0,0,0,.82.66c0.31,0,.61,0,0.92,0a0.68,0.68,0,0,0,.73-0.71q0-4.49,0-9a1,1,0,0,0-.23-0.62,1.71,1.71,0,0,0-2.31.58,14.27,14.27,0,0,1-.42,1.55,2.41,2.41,0,0,1-3,1.16c-0.93-.23-0.55-1.13-0.6-1.76a14.76,14.76,0,0,1,0-2.07C83.59,140.11,84,139.68,85.49,139.58Z" transform="translate(-47.48 -63.72)"/><path class="cls-3" d="M272.38,155c-0.45.08-.91,0.13-1.37,0.17a70.36,70.36,0,0,0-12.67,2.41,31.09,31.09,0,0,0-9.78,4.57,14.22,14.22,0,0,0-6.28,11.51c-0.15,5.44,1.95,9.72,6.73,12.53a17.4,17.4,0,0,0,7.43,2.31,27.69,27.69,0,0,0,17.22-4c0.58-.36,1.18-0.69,1.76-1,8,8.4,19.49,5.28,24.82-.32l-4.41-5.46c-1.08-1.34-1.09-1.33-2.71-.42a6.58,6.58,0,0,1-1,.49,1.27,1.27,0,0,1-1.42-.5,3.17,3.17,0,0,1-.6-1.72c0-.85-0.07-1.69-0.07-2.54,0-6.85,0-13.7,0-20.55a35.38,35.38,0,0,0-.44-5.52,12,12,0,0,0-5.55-8.65,20.62,20.62,0,0,0-4.13-2,28.9,28.9,0,0,0-6.74-1.49,44.47,44.47,0,0,0-15.37.74,20,20,0,0,0-8.61,4.25,12.38,12.38,0,0,0-4.6,8.5,7.38,7.38,0,0,0,5.24,8,8.55,8.55,0,0,0,7.3-1,6.14,6.14,0,0,0,3-4.71,18.34,18.34,0,0,0,.11-2.3,3.48,3.48,0,0,1,2.64-3.62,12,12,0,0,1,7.92.15,3.38,3.38,0,0,1,2.26,2.71,31.25,31.25,0,0,1,.27,6.67A0.92,0.92,0,0,1,272.38,155Zm0.89,14.4h0c0,1.25,0,2.2,0,3.51a1.91,1.91,0,0,1-1,1.75,12.67,12.67,0,0,1-7.21,2.66,4.89,4.89,0,0,1-5-4,5.86,5.86,0,0,1,1.6-5.54,9.72,9.72,0,0,1,2.44-1.74,27.55,27.55,0,0,1,8.12-2.49c0.72-.13,1,0.53,1,1.28C273.28,166.25,273.27,168.18,273.27,169.43Z" transform="translate(-47.48 -63.72)"/><path class="cls-3" d="M279,123.44a25.11,25.11,0,0,0,10.84,1.77c8.73-.34,14.89-4.71,19.07-12.16a1.23,1.23,0,0,0,.05-0.45,1.35,1.35,0,0,0-.31-0.33c-1.3-.67-2.58-1.37-3.91-2-0.82-.38-1.58-1.22-2.49-1s-1.07,1.25-1.58,1.91a15.23,15.23,0,0,1-5,4.39c-4.48,2.31-10.76,1.31-13.24-4.73a21.15,21.15,0,0,1-1.38-7.67,0.55,0.55,0,0,1,.58-0.58c0.61,0,1.23,0,1.84,0h23.77a0.79,0.79,0,0,0,.88-0.84,24,24,0,0,0-.28-5.75C306.5,89.4,302.56,85,296.3,82.72a23.81,23.81,0,0,0-13.86-.83c-8.46,2-13.94,7.15-16,15.7a23.37,23.37,0,0,0-.41,8.25C267,114.19,271.17,120.17,279,123.44Zm2.7-28.83a6.38,6.38,0,0,1,5.9-5,5.72,5.72,0,0,1,6.08,4.54c0.26,1.08-.35,1.43-1.41,1.45-1.69,0-2.92,0-5.43,0v0c-1.25,0-3.16,0-4.92,0C281.42,95.62,281.58,95.2,281.69,94.62Z" transform="translate(-47.48 -63.72)"/><path class="cls-3" d="M343.37,136.24a14.38,14.38,0,0,0-6.62-.15,20.58,20.58,0,0,0-6.23,2.34c-1.15.62-2.28,1.26-3.65,2-0.11-.48-0.17-0.69-0.2-0.9-0.17-1.19.31-2.44-.35-3.58a15,15,0,0,0-3.66-.15,7.75,7.75,0,0,0-1.38.11l-13,1.89c-1.06.16-2.13,0.3-3.19,0.49a1,1,0,0,0-1,1.26c0,2.15,0,4.31,0,6.46a0.83,0.83,0,0,0,.79.93,20.51,20.51,0,0,1,4,.88,4,4,0,0,1,2.9,3.53,37.41,37.41,0,0,1,.29,3.91q0.05,7.62,0,15.23a32.55,32.55,0,0,1-.24,3.68c-0.33,2.76-1.4,3.93-4.1,4.55-1,.22-2,0.33-3,0.49-0.79.13-1,.25-1,1q0,3.23,0,6.46c0,1,.21,1.13,1.27,1.17,0.31,0,.62,0,0.92,0h28.62c0.46,0,.92,0,1.38,0a0.71,0.71,0,0,0,.75-0.71c0-2.38,0-4.77,0-7.15a0.72,0.72,0,0,0-.73-0.73c-1-.15-2-0.26-3-0.5a4.13,4.13,0,0,1-3.43-3.58,19,19,0,0,1-.28-3q0-10.27,0-20.54c0-.31,0-0.62,0-0.92a1.69,1.69,0,0,1,1.27-1.72,4.3,4.3,0,0,1,3.78.25c0.93,0.54,1.81,1.19,2.77,1.65a8.61,8.61,0,0,0,9.36-.83,6.32,6.32,0,0,0,2.59-4C350.17,140.72,347.28,137.39,343.37,136.24Z" transform="translate(-47.48 -63.72)"/><path class="cls-3" d="M97.2,184.27A2.32,2.32,0,0,1,95.27,182c-0.05-.61-0.06-1.23-0.06-1.84q0-4.39,0-8.77c0-.69,0-1.39,0-2.08A2.21,2.21,0,0,1,97.06,167c0.37-.08.74-0.19,1.27-0.34,0-.74,0-1.27,0-1.81a0.77,0.77,0,0,0-.9-0.8c-3.39,0-6.77,0-10.16,0-0.74,0-.92.23-1,1,0,0.23,0,.46,0,0.69a1,1,0,0,0,1,1.25,2.11,2.11,0,0,1,1.88,2.47c0,1,0,2,0,3a0.7,0.7,0,0,1-.73.72c-1.54,0-3.08,0-4.62,0-3.2,0-2.89.29-2.88-3.05,0-2.31.08-2.39,2.37-3.28a0.85,0.85,0,0,0,.63-0.83c0-.23,0-0.46,0-0.69,0-1.14-.13-1.28-1.37-1.29q-4.73,0-9.46,0c-1,0-1.19.19-1.23,1.2,0,1.28,0,1.3,1.23,1.76,1.56,0.57,1.74.75,1.75,2.54q0,6.12,0,12.23c0,1.71-.21,1.92-1.83,2.47a3.06,3.06,0,0,1-.45.09,0.78,0.78,0,0,0-.68.79,9.17,9.17,0,0,0,0,.92c0,0.89.19,1.09,1.08,1.1q5,0,9.93,0c0.86,0,1-.21,1-1.14,0-1.29,0-1.38-1.2-1.73a2.23,2.23,0,0,1-1.81-2.34c0-1.54,0-3.08,0-4.62a0.79,0.79,0,0,1,.85-0.86c2.15,0,4.31,0,6.46,0a0.77,0.77,0,0,1,.91.79q0,2.54,0,5.08a1.84,1.84,0,0,1-1.45,1.85,4.64,4.64,0,0,1-.67.16,0.73,0.73,0,0,0-.69.77c0,0.38,0,.77,0,1.15a0.76,0.76,0,0,0,.79.9l0.92,0h8.54c0.38,0,.77,0,1.15-0.06a0.61,0.61,0,0,0,.58-0.59,6.53,6.53,0,0,0,0-.69C98.36,184.64,98.37,184.57,97.2,184.27Z" transform="translate(-47.48 -63.72)"/><path class="cls-3" d="M69.25,165.31A1.67,1.67,0,0,0,67.4,164c-2.61.07-5.23,0-7.85,0H52.86c-0.69,0-1.38,0-2.08,0a0.91,0.91,0,0,0-.88.61q-1.12,2.9-2.24,5.81a0.62,0.62,0,0,0,.29.79,8.62,8.62,0,0,0,1.27.54,0.81,0.81,0,0,0,1-.28c0.36-.5.68-1,1-1.53a7,7,0,0,1,2.58-2.25,6.21,6.21,0,0,1,1.29-.47c0.8-.19.94,0.1,1,0.88,0,0.46-.22.92-0.22,1.38v11.31c0,0.38.25,0.77,0.22,1.15-0.08,1.47-.26,1.84-1.7,2.26a7,7,0,0,1-.84.17,0.5,0.5,0,0,0-.38.49,4.9,4.9,0,0,0,0,.92c0,1.17.12,1.31,1.34,1.31,3.23,0,6.47,0,9.7,0,0.23,0,.46,0,0.69,0a0.69,0.69,0,0,0,.7-0.74c0-.15,0-0.31,0-0.46,0-1.26,0-1.26-1.27-1.65-1.48-.45-1.82-0.88-1.92-2.46,0-.31,0-0.62,0-0.92q0-5.89,0-11.77c0-.38,0-0.77,0-1.15a0.79,0.79,0,0,1,1-.74,4.84,4.84,0,0,1,2.69,1.21A10.82,10.82,0,0,1,68.34,171c0.65,1,.76,1,1.88.52s1.17-.63.76-1.74C70.43,168.31,69.79,166.83,69.25,165.31Z" transform="translate(-47.48 -63.72)"/><path class="cls-3" d="M63.71,136.14c-7.3-.94-13.6,4.06-13.51,11.83a10.31,10.31,0,0,0,4.34,8.91,11.32,11.32,0,0,0,6.66,2.25c6.3,0.27,11.36-3.55,12.49-9.64,1.19-6.45-2.33-11.4-7.94-13A14,14,0,0,0,63.71,136.14Zm3.87,11.4a12.85,12.85,0,0,1-.65,4.36,8,8,0,0,1-1.4,2.35,4.82,4.82,0,0,1-7.68-.72A11.53,11.53,0,0,1,56.52,146a9.62,9.62,0,0,1,1.61-4.5,4.7,4.7,0,0,1,3.43-2.06,4.57,4.57,0,0,1,4.81,2.41A11,11,0,0,1,67.57,147.54Z" transform="translate(-47.48 -63.72)"/><path class="cls-3" d="M166.77,167q3.32-7.24,6.68-14.45c2-4.24,5-7.11,9.77-8,1-.18,1.07-0.33,1.08-1.44,0-1.62,0-4,0-5.61,0-2.57.21-3.18-2.31-3.18h-23.1c-0.46,0-.92.76-1.39,0.77a1.12,1.12,0,0,0-.89,1.19c0,2.23,0,4.65,0,6.89,0,0.71.2,0.93,1,1a28.29,28.29,0,0,1,3,.44,2.42,2.42,0,0,1,2,2.73,5.28,5.28,0,0,1-.43,1.79q-3.38,8.71-6.76,17.43a0.79,0.79,0,0,1-.65.79,7.11,7.11,0,0,1-.44-0.8q-3.47-8.68-6.91-17.36a9.6,9.6,0,0,1-.45-1.31,2.46,2.46,0,0,1,2-3.28,12.82,12.82,0,0,1,3.2-.36c1.46,0,1.5-.07,1.52-1.6s0-3.23,0-4.85c0-2,0-2-2.08-2H123.43c-0.46,0-.92,0-1.38.06a0.61,0.61,0,0,0-.58.6,64.29,64.29,0,0,0,.16,7.64c0.65,0.13,1.32.29,2,.4a6.44,6.44,0,0,1,4.85,3.53c0.48,0.88.9,1.78,1.31,2.7q4.46,10,8.9,20c2.25,5.06,4.47,10.13,6.77,15.17a2.79,2.79,0,0,1-.1,2.8,48.11,48.11,0,0,1-3.55,5.67,13.91,13.91,0,0,1-1.53,1.72c-1,.94-1.52.92-2.6,0.07a23.85,23.85,0,0,0-2.57-2,8.24,8.24,0,0,0-11.42,3c-2.43,4.53-1.12,9.64,3.56,12a15,15,0,0,0,9.67,1.24,19.64,19.64,0,0,0,13.32-8.73,48.55,48.55,0,0,0,3.75-6.89Q160.39,180.91,166.77,167Z" transform="translate(-47.48 -63.72)"/><path class="cls-3" d="M123.44,178.69c-0.27-.14-0.56-0.26-0.83-0.4a0.77,0.77,0,0,0-1,.22c-0.76.87-1.46,1.8-2.27,2.6a10.14,10.14,0,0,1-8.47,2.82,1.41,1.41,0,0,1-1.58-1.6c-0.11-1.38-.09-2.77-0.12-4.15,0-1.81.19-2,2-1.8a2.16,2.16,0,0,1,1.91,1.44c0.2,0.5.33,1,.49,1.54a0.83,0.83,0,0,0,.83.65,8.4,8.4,0,0,0,.92,0,0.86,0.86,0,0,0,1-1c0-1.69,0-3.39,0-5.08q0-1.85,0-3.69a0.72,0.72,0,0,0-.72-0.74,8.14,8.14,0,0,0-1.15,0,0.72,0.72,0,0,0-.78.66,7.54,7.54,0,0,1-.14.91c-0.41,1.6-.92,2-2.57,2.09-1.49.08-1.7-.11-1.72-1.68a20.16,20.16,0,0,1,.1-2.53,1.52,1.52,0,0,1,1.57-1.65,9.59,9.59,0,0,1,8.62,2.89c0.43,0.44.8,0.93,1.2,1.4a1,1,0,0,0,1.24.24l0.42-.19c1-.47,1.06-0.62.63-1.55-0.71-1.54-1.53-3-2.14-4.6A2.2,2.2,0,0,0,118.3,164c-5.31.06-10.62,0-15.93,0a8.46,8.46,0,0,0-1.15,0,0.84,0.84,0,0,0-.57.3,2.79,2.79,0,0,0-.12,2,0.93,0.93,0,0,0,.88.63c1.44,0.29,1.74,1.28,1.72,2.57,0,2.31,0,4.62,0,6.93,0,1.85,0,3.69,0,5.54a1.86,1.86,0,0,1-1.47,2.06,1.39,1.39,0,0,0-1.21,1.63c0,1.21.2,1.42,1.5,1.43,2.85,0,5.7,0,8.54,0s5.85,0,8.77,0a1.8,1.8,0,0,0,2-1.18c0.84-2,1.81-3.91,2.7-5.87C124.3,179.23,124.24,179.11,123.44,178.69Z" transform="translate(-47.48 -63.72)"/></svg>